<svg preserveAspectRatio="none" width="100%" height="100%" overflow="visible" style="display: block;" viewBox="0 0 139 41.7621" fill="none" xmlns="http://www.w3.org/2000/svg">
<g id="logo">
<g id="i">
<path id="Vector" d="M139 11.224V39.9394C139 40.5347 138.63 40.97 137.96 40.97H130.871C130.201 40.97 129.831 40.5347 129.831 39.9394V11.224C129.831 10.6267 130.201 10.1934 130.871 10.1934H137.96C138.63 10.1934 139 10.6286 139 11.224Z" fill="var(--fill-0, white)"/>
<path id="Vector_2" d="M139 1.03259V6.90801C139 7.50335 138.63 7.93864 137.96 7.93864H130.871C130.201 7.93864 129.831 7.50335 129.831 6.90801V1.03259C129.831 0.435288 130.201 0 130.871 0H137.96C138.63 0 139 0.435288 139 1.03064V1.03259Z" fill="var(--fill-0, white)"/>
</g>
<path id="M" d="M127.192 17.2629C127.078 15.9473 126.805 14.6297 126.289 13.5756C125.749 12.4728 124.889 11.5534 123.859 10.8565C122.693 10.0679 121.432 9.74782 120.325 9.54481C119.676 9.42574 118.316 9.36328 117.389 9.36328C116.462 9.36328 115.102 9.4277 114.452 9.54481C113.345 9.74782 112.083 10.0679 110.917 10.8565C109.885 11.5534 109.027 12.4728 108.488 13.5756C107.972 14.6297 107.699 15.9473 107.584 17.2629C107.491 18.3638 107.481 19.4061 107.481 19.4061V32.1974C107.481 32.7556 107.149 33.1636 106.562 33.2163C106.562 33.2163 106.538 33.2163 106.511 33.2163C106.483 33.2163 106.459 33.2163 106.459 33.2163C105.872 33.1636 105.54 32.7556 105.54 32.1974V19.4061C105.54 19.4061 105.532 18.3638 105.437 17.2629C105.323 15.9473 105.052 14.6297 104.534 13.5756C103.994 12.4728 103.136 11.5534 102.104 10.8565C100.938 10.0679 99.677 9.74782 98.5699 9.54481C97.9215 9.42574 96.5595 9.36328 95.6324 9.36328C94.7053 9.36328 93.3452 9.4277 92.6968 9.54481C91.5878 9.74782 90.3286 10.0679 89.1623 10.8565C88.1304 11.5534 87.2724 12.4728 86.7308 13.5756C86.2148 14.6297 85.942 15.9473 85.8274 17.2629C85.7345 18.3638 85.7266 19.4061 85.7266 19.4061V39.9408C85.7266 40.5362 86.0962 40.9715 86.7664 40.9715H93.5508C94.2209 40.9715 94.5906 40.5362 94.5906 39.9408V20.265V18.5668C94.5906 17.9695 94.9662 17.5342 95.6304 17.5342C96.2946 17.5342 96.6702 17.9695 96.6702 18.5668V18.5746V27.5107C96.6702 27.5107 96.6702 27.5127 96.6702 27.5146V31.3561C96.6702 31.3561 96.6781 32.4004 96.773 33.4993C96.8857 34.815 97.1585 36.1325 97.6744 37.1866C98.2141 38.2914 99.0721 39.2088 100.104 39.9076C101.27 40.6962 102.531 41.0144 103.639 41.2194C104.196 41.3209 105.382 41.3833 106.293 41.3989H106.714C107.626 41.3833 108.812 41.3209 109.369 41.2194C110.476 41.0164 111.738 40.6962 112.904 39.9076C113.936 39.2088 114.794 38.2914 115.333 37.1866C115.849 36.1325 116.122 34.815 116.235 33.4993C116.328 32.3984 116.338 31.3561 116.338 31.3561V27.5146C116.338 27.5146 116.338 27.5127 116.338 27.5107V18.5746V18.5668C116.338 17.9695 116.707 17.5342 117.377 17.5342C118.048 17.5342 118.417 17.9695 118.417 18.5668V39.9408C118.417 40.5362 118.789 40.9715 119.459 40.9715H126.243C126.914 40.9715 127.283 40.5362 127.283 39.9408V19.4061C127.283 19.4061 127.275 18.3638 127.18 17.2629H127.192Z" fill="var(--fill-0, white)"/>
<g id="O">
<path id="Vector_3" d="M65.996 9.43735C77.4714 9.43735 83.7874 16.3336 83.7874 25.5996C83.7874 34.8656 77.5149 41.7619 65.996 41.7619C54.4771 41.7619 48.2047 34.8227 48.2047 25.5996C48.2047 16.3766 54.5661 9.43735 65.996 9.43735ZM65.996 34.2663C71.624 34.2663 74.7336 30.6123 74.7336 25.5996C74.7336 20.587 71.624 16.9329 65.996 16.9329C60.368 16.9329 57.2585 20.587 57.2585 25.5996C57.2585 30.6123 60.289 34.2663 65.996 34.2663Z" fill="var(--fill-0, white)"/>
</g>
<path id="T" d="M126.255 0H29.2389C28.5687 0 28.199 0.435288 28.199 1.03259V6.90801C28.199 7.50335 28.5687 7.9406 29.2389 7.9406H36.3514C37.0216 7.9406 37.3912 8.37588 37.3912 8.97319C37.3912 9.57049 37.3912 39.9431 37.3912 39.9431C37.3912 40.5384 37.7609 40.9757 38.4311 40.9757H45.3558C46.026 40.9757 46.3957 40.5404 46.3957 39.9431C46.3957 39.9431 46.3957 9.56853 46.3957 8.97319C46.3957 8.37784 46.7653 7.9406 47.4355 7.9406H126.255C126.925 7.9406 127.295 7.50531 127.295 6.90801V1.03259C127.295 0.435288 126.925 0 126.255 0Z" fill="var(--fill-0, white)"/>
<g id="_O">
<path id="Vector_4" d="M17.7914 9.43742C29.2668 9.43742 35.5827 16.3337 35.5827 25.5997C35.5827 34.8657 29.3103 41.762 17.7914 41.762C6.27244 41.762 0 34.8227 0 25.5997C0 16.3767 6.3614 9.43742 17.7914 9.43742ZM17.7914 34.2664C23.4193 34.2664 26.5289 30.6123 26.5289 25.5997C26.5289 20.587 23.4193 16.933 17.7914 16.933C12.1634 16.933 9.05382 20.587 9.05382 25.5997C9.05382 30.6123 12.0843 34.2664 17.7914 34.2664Z" fill="var(--fill-0, white)"/>
<path id="Vector_5" d="M25.6633 1.03259V6.90801C25.6633 7.50336 25.2936 7.9406 24.6235 7.9406H10.9597C10.2896 7.9406 9.91992 7.50531 9.91992 6.90801V1.03259C9.91992 0.435288 10.2896 0 10.9597 0H24.6215C25.2917 0 25.6613 0.435288 25.6613 1.03259H25.6633Z" fill="var(--fill-0, white)"/>
</g>
</g>
</svg>
